<?xml version="1.0" encoding="UTF-8" standalone="no"?>
<!-- Created with Inkscape (http://www.inkscape.org/) -->

<svg
   xmlns:dc="http://purl.org/dc/elements/1.1/"
   xmlns:cc="http://creativecommons.org/ns#"
   xmlns:rdf="http://www.w3.org/1999/02/22-rdf-syntax-ns#"
   xmlns:svg="http://www.w3.org/2000/svg"
   xmlns="http://www.w3.org/2000/svg"
   xmlns:sodipodi="http://sodipodi.sourceforge.net/DTD/sodipodi-0.dtd"
   xmlns:inkscape="http://www.inkscape.org/namespaces/inkscape"
   id="svg2"
   version="1.1"
   inkscape:version="0.91 r13725"
   xml:space="preserve"
   width="1412.4875"
   height="571.23749"
   viewBox="0 0 1412.4875 571.23749"
   sodipodi:docname="mozilla_wordmark_CS4.svg"><metadata
     id="metadata8"><rdf:RDF><cc:Work
         rdf:about=""><dc:format>image/svg+xml</dc:format><dc:type
           rdf:resource="http://purl.org/dc/dcmitype/StillImage" /><dc:title></dc:title></cc:Work></rdf:RDF></metadata><defs
     id="defs6" /><sodipodi:namedview
     pagecolor="#ffffff"
     bordercolor="#666666"
     borderopacity="1"
     objecttolerance="10"
     gridtolerance="10"
     guidetolerance="10"
     inkscape:pageopacity="0"
     inkscape:pageshadow="2"
     inkscape:window-width="1174"
     inkscape:window-height="658"
     id="namedview4"
     showgrid="false"
     inkscape:zoom="0.51986078"
     inkscape:cx="706.24377"
     inkscape:cy="285.61874"
     inkscape:window-x="0"
     inkscape:window-y="27"
     inkscape:window-maximized="0"
     inkscape:current-layer="g10" /><g
     id="g10"
     inkscape:groupmode="layer"
     inkscape:label="ink_ext_XXXXXX"
     transform="matrix(1.25,0,0,-1.25,0,571.2375)"><g
       id="g3361"><path
         d="m 155.526,285.422 c 2.705,-4.176 3.898,-7.901 5.409,-15.76 10.579,10.326 23.624,15.76 37.862,15.76 12.859,0 23.412,-4.176 31.578,-12.699 2.2,-2.136 4.322,-4.892 6.152,-7.597 14.21,14.555 26.937,20.296 43.986,20.296 12.142,0 23.65,-3.631 30.677,-9.677 8.776,-7.584 11.559,-16.702 11.559,-37.93 l 0,-110.443 -39.452,0 0,102.53 c 0,18.586 -2.2,22.18 -12.78,22.18 -7.583,0 -18.241,-5.172 -26.991,-13.059 l 0,-111.651 -38.499,0 0,101.073 c 0,19.38 -2.809,23.93 -14.104,23.93 -7.504,0 -17.898,-3.887 -26.647,-11.814 l 0,-113.189 -39.718,0 0,108.338 c 0,22.431 -1.538,32.121 -5.806,39.742 l 36.774,9.97"
         style="fill:#ffffff;fill-opacity:1;fill-rule:nonzero;stroke:none"
         id="path14"
         inkscape:connector-curvature="0" /><path
         d="m 394.895,239.952 c -2.785,-8.22 -4.268,-19.131 -4.268,-34.615 0,-17.856 1.828,-31.274 5.142,-39.134 3.659,-8.499 12.808,-12.741 20.627,-12.741 17.607,0 25.137,15.762 25.137,52.47 0,20.949 -2.732,34.629 -8.166,41.627 -3.9,5.118 -10.235,8.166 -17.553,8.166 -9.73,0 -17.632,-6.043 -20.919,-15.773 z m 73.097,22.429 c 12.409,-14.556 17.951,-31.537 17.951,-56.714 0,-26.699 -6.124,-44.938 -19.515,-60.079 -11.771,-13.337 -27.282,-21.557 -51.198,-21.557 -42.236,0 -69.784,31.566 -69.784,80.391 0,48.868 27.839,81.346 69.784,81.346 22.139,0 39.427,-7.611 52.762,-23.387"
         style="fill:#ffffff;fill-opacity:1;fill-rule:nonzero;stroke:none"
         id="path16"
         inkscape:connector-curvature="0" /><path
         d="m 616.708,282.717 0,-27.916 -68.616,-99.204 71.295,0 -9.731,-28.225 -114.326,0 0,25.175 73.046,101.64 -66.95,0 0,28.53 115.282,0"
         style="fill:#ffffff;fill-opacity:1;fill-rule:nonzero;stroke:none"
         id="path18"
         inkscape:connector-curvature="0" /><path
         d="m 680.69,286.377 0,-159.005 -40.648,0 0,152.616 40.648,6.389 z m 4.771,39.109 c 0,-13.976 -11.11,-25.136 -25.161,-25.136 -13.603,0 -24.79,11.16 -24.79,25.136 0,13.946 11.56,25.201 25.476,25.201 13.63,0 24.475,-11.255 24.475,-25.201"
         style="fill:#ffffff;fill-opacity:1;fill-rule:nonzero;stroke:none"
         id="path20"
         inkscape:connector-curvature="0" /><path
         d="m 754.715,311.51 0,-121.035 c 0,-26.738 0.319,-30.332 2.759,-34.574 1.537,-2.756 4.824,-4.243 8.219,-4.243 1.458,0 2.332,0 4.533,0.559 l 6.947,-24.246 c -6.947,-2.718 -15.457,-4.233 -24.258,-4.233 -17.342,0 -31.288,8.17 -36.116,21.188 -3.048,7.9 -3.711,12.778 -3.711,34.917 l 0,115.948 c 0,20.309 -0.528,32.718 -2.043,46.73 l 41.577,9.399 c 1.457,-8.486 2.093,-18.507 2.093,-40.41"
         style="fill:#ffffff;fill-opacity:1;fill-rule:nonzero;stroke:none"
         id="path22"
         inkscape:connector-curvature="0" /><path
         d="m 839.028,311.51 0,-121.035 c 0,-26.738 0.347,-30.332 2.84,-34.574 1.43,-2.756 4.717,-4.243 8.113,-4.243 1.537,0 2.465,0 4.612,0.559 l 6.922,-24.246 c -6.922,-2.718 -15.434,-4.233 -24.263,-4.233 -17.311,0 -31.284,8.17 -36.136,21.188 -3.102,7.9 -3.607,12.778 -3.607,34.917 l 0,115.948 c 0,20.309 -0.608,32.718 -2.174,46.73 l 41.52,9.399 c 1.672,-8.486 2.173,-18.507 2.173,-40.41"
         style="fill:#ffffff;fill-opacity:1;fill-rule:nonzero;stroke:none"
         id="path24"
         inkscape:connector-curvature="0" /><path
         d="m 955.505,195.327 c -28.105,0 -37.967,-5.117 -37.967,-23.703 0,-12.089 7.689,-20.282 18.001,-20.282 7.557,0 15.195,3.95 21.214,10.605 l 0.663,33.38 -1.911,0 z m -52.684,81.612 c 15.115,6.39 28.109,9.095 42.425,9.095 26.143,0 44.013,-9.68 50.136,-26.991 2.016,-6.366 2.944,-11.218 2.759,-27.919 l -0.983,-52.156 c 0,-0.915 0,-1.88 0,-2.755 0,-16.678 2.759,-23.068 14.642,-31.846 l -21.586,-24.922 c -9.495,3.977 -17.95,10.976 -21.903,18.839 -2.995,-3.063 -6.363,-6.033 -9.439,-8.18 -7.529,-5.464 -18.531,-8.512 -31.26,-8.512 -34.598,0 -53.396,17.633 -53.396,48.521 0,36.469 25.241,53.48 74.66,53.48 2.971,0 5.781,0 9.149,-0.346 l 0,6.336 c 0,17.327 -3.368,23.094 -18.321,23.094 -12.886,0 -28.185,-6.335 -44.837,-17.59 l -17.313,29.137 c 8.246,5.172 14.319,8.18 25.267,12.715"
         style="fill:#ffffff;fill-opacity:1;fill-rule:nonzero;stroke:none"
         id="path26"
         inkscape:connector-curvature="0" /></g></g></svg>
